<svg width="395" height="164" viewBox="0 0 395 164" fill="none" xmlns="http://www.w3.org/2000/svg">
<mask id="mask0_34_28" style="mask-type:alpha" maskUnits="userSpaceOnUse" x="0" y="44" width="395" height="61">
<path d="M392.593 72.9909L352.711 54.3925C350.62 53.4172 348.135 54.3221 347.159 56.4132L345.392 60.1996C344.417 62.2907 345.322 64.7763 347.413 65.7515L375.854 79.0129L347.408 92.2794C345.322 93.2521 344.42 95.7312 345.392 97.8171L347.153 101.593C348.125 103.679 350.605 104.581 352.69 103.609L392.594 85.001C393.313 84.6659 393.921 84.1325 394.347 83.4637C394.773 82.7948 395 82.0182 395 81.2251V76.7682C394.999 75.1471 394.061 73.6745 392.593 72.9909Z" fill="black"/>
<path d="M2.40747 83.0091L42.2888 101.608C44.3799 102.583 46.8655 101.678 47.8407 99.5868L49.6075 95.8004C50.5828 93.7093 49.6779 91.2237 47.5868 90.2485L19.1464 76.9871L47.592 63.7206C49.6779 62.7479 50.5802 60.2688 49.6075 58.1829L47.8472 54.407C46.8746 52.3211 44.3955 51.4188 42.3096 52.3914L2.40616 70.999C1.68733 71.3341 1.07907 71.8675 0.652847 72.5363C0.226624 73.2052 0.000137329 73.9818 0 74.7749V79.2318C0.00130081 80.8529 0.93877 82.3255 2.40747 83.0091Z" fill="black"/>
<path d="M66.0012 73.0353C66.0393 65.7123 69.8637 58.3041 72.4807 54.9736C75.0975 51.6431 76.5927 50.106 79.2095 48.3126C81.8262 46.5193 84.7131 44.9099 89.801 44.3417C94.8889 43.7735 111.856 44.0855 112.978 44.0855C114.099 44.0855 115.345 44.4698 115.345 44.4698C117.09 45.1102 117.299 45.7507 117.693 46.6474C118.087 47.5441 118.336 52.0274 117.464 53.1803C116.591 54.3332 116.342 54.4613 114.971 54.8455L112.978 54.9736C112.978 54.9736 98.648 54.3331 92.6669 55.3579C86.6858 56.3827 84.2406 57.6505 81.0786 61.5065C77.9163 65.3626 77.2684 68.4437 77.0912 73.0353C76.9137 77.6268 78.4683 81.6021 81.0786 85.5887C83.6886 89.5753 88.618 91.5439 92.6669 91.9935C96.7159 92.4429 104.501 92.4055 112.978 92.5059C112.978 92.5059 114.224 92.5059 115.221 92.7621C116.218 93.0183 118.46 94.6836 118.336 98.2702C118.211 101.857 116.218 103.01 115.096 103.394C113.975 103.778 112.978 103.778 112.978 103.778C112.978 103.778 94.1622 104.419 90.0502 103.522C85.9382 102.626 84.4437 102.106 79.2095 99.0388C76.5185 97.1676 75.0596 95.7393 72.4807 93.0183C71.0298 90.9823 69.8792 89.0883 68.9756 87.254C66.6731 82.5805 65.9735 78.2939 66.0012 73.0353Z" fill="black"/>
<rect x="88.8164" y="68" width="31.1844" height="12.2597" rx="6.12987" fill="black"/>
<path d="M147.68 104.88C143.147 104.88 139.493 104.133 136.72 102.64C134 101.147 132.027 98.8533 130.8 95.76C129.573 92.6133 128.96 88.56 128.96 83.6C128.96 78.8 129.6 74.9067 130.88 71.92C132.16 68.88 134.187 66.64 136.96 65.2C139.733 63.7067 143.307 62.96 147.68 62.96C152.107 62.96 155.68 63.7067 158.4 65.2C161.173 66.64 163.2 68.88 164.48 71.92C165.813 74.9067 166.48 78.8 166.48 83.6C166.48 88.56 165.867 92.6133 164.64 95.76C163.413 98.8533 161.413 101.147 158.64 102.64C155.92 104.133 152.267 104.88 147.68 104.88ZM147.68 96.08C149.92 96.08 151.6 95.68 152.72 94.88C153.84 94.0267 154.587 92.6933 154.96 90.88C155.387 89.0133 155.6 86.5867 155.6 83.6C155.6 80.6667 155.36 78.3467 154.88 76.64C154.4 74.88 153.6 73.6267 152.48 72.88C151.36 72.1333 149.76 71.76 147.68 71.76C145.653 71.76 144.053 72.1333 142.88 72.88C141.76 73.6267 140.96 74.88 140.48 76.64C140 78.3467 139.76 80.6667 139.76 83.6C139.76 86.5867 139.947 89.0133 140.32 90.88C140.747 92.6933 141.52 94.0267 142.64 94.88C143.76 95.68 145.44 96.08 147.68 96.08ZM187.279 104.88C185.359 104.88 183.599 104.64 181.999 104.16C180.399 103.733 178.986 103.04 177.759 102.08C176.586 101.067 175.573 99.76 174.719 98.16C173.919 96.56 173.306 94.6133 172.879 92.32C172.453 89.9733 172.239 87.2533 172.239 84.16C172.239 79.5733 172.799 75.7067 173.919 72.56C175.093 69.4133 176.933 67.04 179.439 65.44C181.946 63.7867 185.279 62.96 189.439 62.96C190.666 62.96 192.106 63.0667 193.759 63.28C195.466 63.44 196.826 63.6 197.839 63.76V47.44H208.559V104H197.999L197.919 101.68C197.173 102.107 196.186 102.587 194.959 103.12C193.786 103.6 192.533 104 191.199 104.32C189.866 104.693 188.559 104.88 187.279 104.88ZM189.999 95.92C190.959 95.92 191.919 95.8133 192.879 95.6C193.893 95.3867 194.826 95.1467 195.679 94.88C196.586 94.56 197.306 94.2667 197.839 94V72.48C197.359 72.3733 196.719 72.2933 195.919 72.24C195.119 72.1333 194.293 72.0533 193.439 72C192.586 71.8933 191.813 71.84 191.119 71.84C189.039 71.84 187.413 72.32 186.239 73.28C185.119 74.24 184.319 75.6533 183.839 77.52C183.359 79.3333 183.119 81.5467 183.119 84.16C183.119 86.4533 183.279 88.3733 183.599 89.92C183.919 91.4133 184.373 92.6133 184.959 93.52C185.599 94.3733 186.346 94.9867 187.199 95.36C188.053 95.7333 188.986 95.92 189.999 95.92ZM233.593 104.88C229.166 104.88 225.646 104.133 223.033 102.64C220.473 101.147 218.633 98.88 217.513 95.84C216.393 92.8 215.833 88.9867 215.833 84.4C215.833 79.44 216.526 75.3867 217.913 72.24C219.353 69.0933 221.433 66.7733 224.153 65.28C226.873 63.7333 230.233 62.96 234.233 62.96C240.153 62.96 244.606 64.4533 247.593 67.44C250.633 70.4267 252.153 75.1467 252.153 81.6L251.673 87.52H226.553C226.606 90.5067 227.22 92.7467 228.393 94.24C229.566 95.7333 231.593 96.48 234.473 96.48C236.126 96.48 237.94 96.4533 239.913 96.4C241.886 96.2933 243.833 96.1867 245.753 96.08C247.726 95.9733 249.406 95.8667 250.793 95.76L251.033 103.2C249.7 103.413 248.02 103.653 245.993 103.92C243.966 104.187 241.86 104.4 239.673 104.56C237.54 104.773 235.513 104.88 233.593 104.88ZM226.553 80.72H241.513C241.513 77.0933 240.926 74.56 239.753 73.12C238.633 71.68 236.793 70.96 234.233 70.96C231.726 70.96 229.806 71.7067 228.473 73.2C227.193 74.6933 226.553 77.2 226.553 80.72ZM275.628 104.88C271.041 104.88 267.441 104.187 264.828 102.8C262.268 101.36 260.455 99.0667 259.388 95.92C258.375 92.7733 257.868 88.64 257.868 83.52C257.868 78.4533 258.455 74.4267 259.628 71.44C260.801 68.4 262.695 66.24 265.308 64.96C267.975 63.6267 271.441 62.96 275.708 62.96C276.828 62.96 278.135 63.04 279.628 63.2C281.121 63.36 282.615 63.5733 284.108 63.84C285.655 64.0533 286.961 64.2667 288.028 64.48L287.628 73.04C286.615 72.9333 285.468 72.8533 284.188 72.8C282.908 72.6933 281.655 72.6133 280.428 72.56C279.255 72.4533 278.295 72.4 277.548 72.4C275.255 72.4 273.441 72.7733 272.108 73.52C270.828 74.2133 269.921 75.3867 269.388 77.04C268.908 78.64 268.668 80.8 268.668 83.52C268.668 86.4533 268.908 88.8 269.388 90.56C269.868 92.32 270.721 93.5733 271.948 94.32C273.228 95.0667 275.095 95.44 277.548 95.44C278.295 95.44 279.281 95.4133 280.508 95.36C281.735 95.2533 282.988 95.1467 284.268 95.04C285.601 94.9333 286.775 94.8533 287.788 94.8L288.108 103.36C287.041 103.573 285.761 103.787 284.268 104C282.775 104.267 281.255 104.48 279.708 104.64C278.215 104.8 276.855 104.88 275.628 104.88ZM295.009 104V47.44H305.649V78.96L310.369 78.8L318.689 63.84H329.809L319.649 82.72L330.369 104H319.169L310.529 88.08L305.649 88.32V104H295.009Z" fill="black"/>
</mask>
<g mask="url(#mask0_34_28)">
<rect x="-8" width="418" height="167" fill="url(#paint0_linear_34_28)"/>
</g>
<defs>
<linearGradient id="paint0_linear_34_28" x1="31.7485" y1="40.3299" x2="378.661" y2="189.955" gradientUnits="userSpaceOnUse">
<stop offset="0.0166149" stop-color="#2145A3"/>
<stop offset="0.483398" stop-color="#5C41D9"/>
<stop offset="1" stop-color="#D941CA"/>
</linearGradient>
</defs>
</svg>
